<?xml version="1.0" encoding="UTF-8"?>
<svg id="Capa_2" data-name="Capa 2" xmlns="http://www.w3.org/2000/svg" xmlns:xlink="http://www.w3.org/1999/xlink" viewBox="0 0 2148.04 703.06">
  <defs>
    <style>
      .cls-1 {
        fill: url(#Degradado_sin_nombre_276-6);
      }

      .cls-1, .cls-2, .cls-3, .cls-4, .cls-5, .cls-6, .cls-7, .cls-8, .cls-9, .cls-10, .cls-11, .cls-12, .cls-13, .cls-14, .cls-15, .cls-16, .cls-17, .cls-18, .cls-19, .cls-20, .cls-21 {
        stroke-width: 0px;
      }

      .cls-2, .cls-22 {
        fill: #0462f5;
      }

      .cls-3 {
        fill: url(#Degradado_sin_nombre_276-13);
      }

      .cls-23 {
        clip-path: url(#clippath-2);
      }

      .cls-4 {
        fill: url(#Degradado_sin_nombre_276-3);
      }

      .cls-5 {
        fill: url(#Degradado_sin_nombre_276-8);
      }

      .cls-6, .cls-24 {
        fill: url(#Degradado_sin_nombre_274);
      }

      .cls-25 {
        clip-path: url(#clippath-1);
      }

      .cls-7 {
        fill: url(#Degradado_sin_nombre_275);
      }

      .cls-8 {
        fill: url(#Degradado_sin_nombre_276-11);
      }

      .cls-9 {
        fill: url(#Degradado_sin_nombre_276-5);
      }

      .cls-10 {
        fill: #0a7aff;
      }

      .cls-11 {
        fill: url(#Degradado_sin_nombre_276-7);
      }

      .cls-12 {
        fill: url(#Degradado_sin_nombre_276-9);
      }

      .cls-13 {
        fill: #fff;
      }

      .cls-14 {
        fill: url(#Degradado_sin_nombre_276-14);
      }

      .cls-15 {
        fill: url(#Degradado_sin_nombre_276-4);
      }

      .cls-16, .cls-26 {
        fill: #080e28;
      }

      .cls-17 {
        fill: url(#Degradado_sin_nombre_276-2);
      }

      .cls-18 {
        fill: url(#Degradado_sin_nombre_276-12);
      }

      .cls-27 {
        clip-path: url(#clippath);
      }

      .cls-19 {
        fill: url(#Degradado_sin_nombre_276);
      }

      .cls-20 {
        fill: url(#Degradado_sin_nombre_276-15);
      }

      .cls-21 {
        fill: url(#Degradado_sin_nombre_276-10);
      }
    </style>
    <clipPath id="clippath">
      <path class="cls-2" d="m196.06,514.38c87.43,47.91,188.46,37.68,266.82-23.18,45.64-35.04,81.25-80.88,109.11-131.05,18.27-32.9,30.64-68.76,36.73-105.89,9.89-60.3,14.56-108,16.73-141.71,1.55-24.11-18.73-43.95-42.8-41.92-23.72,2-55.09,2.81-95.56-7.89-57.06-15.09-99.85-35.67-129.29-51.44-28.11-15.07-61.94-15.07-90.06,0-29.45,15.78-72.24,36.36-129.3,51.45-40.46,10.7-71.83,9.89-95.54,7.89C18.79,68.6-1.47,88.46.08,112.59c2.26,35.16,7.25,85.5,18.02,149.46,6.3,37.37,18.77,73.53,37.55,106.45.11.19.22.38.32.57,33.83,58.78,80.14,112.35,140.08,145.31Z"/>
    </clipPath>
    <linearGradient id="Degradado_sin_nombre_276" data-name="Degradado sin nombre 276" x1="-6.68" y1="144.48" x2="645.07" y2="144.48" gradientUnits="userSpaceOnUse">
      <stop offset=".04" stop-color="#0462f5"/>
      <stop offset=".2" stop-color="#227ef5"/>
      <stop offset=".38" stop-color="#3b96f5"/>
      <stop offset=".57" stop-color="#4ca7f5"/>
      <stop offset=".77" stop-color="#57b1f5"/>
      <stop offset="1" stop-color="#5bb5f5"/>
    </linearGradient>
    <radialGradient id="Degradado_sin_nombre_274" data-name="Degradado sin nombre 274" cx="311.59" cy="561.96" fx="311.59" fy="561.96" r="207.55" gradientUnits="userSpaceOnUse">
      <stop offset="0" stop-color="#080e28"/>
      <stop offset="1" stop-color="#0462f5"/>
    </radialGradient>
    <clipPath id="clippath-1">
      <path class="cls-6" d="m312.76,562.36c-88.88-.13-169.06-46.11-227.16-111.2-8.25-9.2-16.08-18.73-23.49-28.54-2.98-3.95-9.23-.66-7.64,4.02,46.66,137.05,164.78,220.14,247.41,273.22,6.63,4.26,15.12,4.26,21.75,0,81.27-52.21,196.87-133.44,245.05-266.47,1.7-4.69-4.44-8.16-7.53-4.24-60.88,77.22-147.28,133.35-248.39,133.21Z"/>
    </clipPath>
    <linearGradient id="Degradado_sin_nombre_275" data-name="Degradado sin nombre 275" x1="2477.46" y1="2415.9" x2="3515.36" y2="2415.9" gradientTransform="translate(-2104.68 3083.62) rotate(-90)" gradientUnits="userSpaceOnUse">
      <stop offset=".04" stop-color="#0462f5"/>
      <stop offset=".08" stop-color="#0455d7"/>
      <stop offset=".16" stop-color="#0542a9"/>
      <stop offset=".24" stop-color="#063281"/>
      <stop offset=".33" stop-color="#062561"/>
      <stop offset=".42" stop-color="#071b47"/>
      <stop offset=".5" stop-color="#071336"/>
      <stop offset=".6" stop-color="#070f2b"/>
      <stop offset=".71" stop-color="#080e28"/>
    </linearGradient>
    <clipPath id="clippath-2">
      <path class="cls-16" d="m312.76,390.27c58.95,0,106.73-47.78,106.73-106.73s-47.78-106.73-106.73-106.73c-23.2,0-44.67,7.41-62.18,19.98,10.58,4.29,18.04,14.65,18.04,26.77,0,15.95-12.93,28.88-28.88,28.88-10.11,0-19.01-5.2-24.17-13.07-6.13,13.46-9.55,28.42-9.55,44.18,0,58.95,47.78,106.73,106.73,106.73Z"/>
    </clipPath>
    <linearGradient id="Degradado_sin_nombre_276-2" data-name="Degradado sin nombre 276" x1="680.75" y1="205.53" x2="1423.78" y2="1039.31" xlink:href="#Degradado_sin_nombre_276"/>
    <linearGradient id="Degradado_sin_nombre_276-3" data-name="Degradado sin nombre 276" x1="748.29" y1="145.34" x2="1491.32" y2="979.12" xlink:href="#Degradado_sin_nombre_276"/>
    <linearGradient id="Degradado_sin_nombre_276-4" data-name="Degradado sin nombre 276" x1="862.87" y1="43.24" x2="1605.89" y2="877.02" xlink:href="#Degradado_sin_nombre_276"/>
    <linearGradient id="Degradado_sin_nombre_276-5" data-name="Degradado sin nombre 276" x1="934.48" y1="-20.58" x2="1677.5" y2="813.2" xlink:href="#Degradado_sin_nombre_276"/>
    <linearGradient id="Degradado_sin_nombre_276-6" data-name="Degradado sin nombre 276" x1="1018.46" y1="-95.41" x2="1761.48" y2="738.36" xlink:href="#Degradado_sin_nombre_276"/>
    <linearGradient id="Degradado_sin_nombre_276-7" data-name="Degradado sin nombre 276" x1="623.43" y1="256.62" x2="1366.45" y2="1090.39" xlink:href="#Degradado_sin_nombre_276"/>
    <linearGradient id="Degradado_sin_nombre_276-8" data-name="Degradado sin nombre 276" x1="716.59" y1="173.6" x2="1459.61" y2="1007.38" xlink:href="#Degradado_sin_nombre_276"/>
    <linearGradient id="Degradado_sin_nombre_276-9" data-name="Degradado sin nombre 276" x1="812.53" y1="88.1" x2="1555.56" y2="921.87" xlink:href="#Degradado_sin_nombre_276"/>
    <linearGradient id="Degradado_sin_nombre_276-10" data-name="Degradado sin nombre 276" x1="921.32" y1="-8.85" x2="1664.34" y2="824.92" xlink:href="#Degradado_sin_nombre_276"/>
    <linearGradient id="Degradado_sin_nombre_276-11" data-name="Degradado sin nombre 276" x1="1004.06" y1="-82.59" x2="1747.09" y2="751.19" xlink:href="#Degradado_sin_nombre_276"/>
    <linearGradient id="Degradado_sin_nombre_276-12" data-name="Degradado sin nombre 276" x1="1073.36" y1="-144.34" x2="1816.39" y2="689.43" xlink:href="#Degradado_sin_nombre_276"/>
    <linearGradient id="Degradado_sin_nombre_276-13" data-name="Degradado sin nombre 276" x1="1131.42" y1="-196.08" x2="1874.44" y2="637.7" xlink:href="#Degradado_sin_nombre_276"/>
    <linearGradient id="Degradado_sin_nombre_276-14" data-name="Degradado sin nombre 276" x1="1215.29" y1="-270.82" x2="1958.31" y2="562.95" xlink:href="#Degradado_sin_nombre_276"/>
    <linearGradient id="Degradado_sin_nombre_276-15" data-name="Degradado sin nombre 276" x1="1327" y1="-370.37" x2="2070.02" y2="463.4" xlink:href="#Degradado_sin_nombre_276"/>
  </defs>
  <g id="Capa_1-2" data-name="Capa 1">
    <g>
      <g>
        <g>
          <g>
            <path class="cls-22" d="m196.06,514.38c87.43,47.91,188.46,37.68,266.82-23.18,45.64-35.04,81.25-80.88,109.11-131.05,18.27-32.9,30.64-68.76,36.73-105.89,9.89-60.3,14.56-108,16.73-141.71,1.55-24.11-18.73-43.95-42.8-41.92-23.72,2-55.09,2.81-95.56-7.89-57.06-15.09-99.85-35.67-129.29-51.44-28.11-15.07-61.94-15.07-90.06,0-29.45,15.78-72.24,36.36-129.3,51.45-40.46,10.7-71.83,9.89-95.54,7.89C18.79,68.6-1.47,88.46.08,112.59c2.26,35.16,7.25,85.5,18.02,149.46,6.3,37.37,18.77,73.53,37.55,106.45.11.19.22.38.32.57,33.83,58.78,80.14,112.35,140.08,145.31Z"/>
            <g class="cls-27">
              <circle class="cls-19" cx="319.19" cy="144.48" r="325.88"/>
            </g>
          </g>
          <g>
            <path class="cls-24" d="m312.76,562.36c-88.88-.13-169.06-46.11-227.16-111.2-8.25-9.2-16.08-18.73-23.49-28.54-2.98-3.95-9.23-.66-7.64,4.02,46.66,137.05,164.78,220.14,247.41,273.22,6.63,4.26,15.12,4.26,21.75,0,81.27-52.21,196.87-133.44,245.05-266.47,1.7-4.69-4.44-8.16-7.53-4.24-60.88,77.22-147.28,133.35-248.39,133.21Z"/>
            <g class="cls-25">
              <ellipse class="cls-7" cx="311.22" cy="87.2" rx="340.28" ry="518.95"/>
            </g>
          </g>
        </g>
        <g>
          <circle class="cls-13" cx="312.76" cy="283.55" r="152.4"/>
          <g>
            <path class="cls-26" d="m312.76,390.27c58.95,0,106.73-47.78,106.73-106.73s-47.78-106.73-106.73-106.73c-23.2,0-44.67,7.41-62.18,19.98,10.58,4.29,18.04,14.65,18.04,26.77,0,15.95-12.93,28.88-28.88,28.88-10.11,0-19.01-5.2-24.17-13.07-6.13,13.46-9.55,28.42-9.55,44.18,0,58.95,47.78,106.73,106.73,106.73Z"/>
            <g class="cls-23">
              <circle class="cls-10" cx="312.76" cy="283.55" r="34.25"/>
            </g>
          </g>
        </g>
      </g>
      <g>
        <path class="cls-13" d="m737.36,140.76h-15.46v9.56h-8.25v-37.7h23.6c10.27,0,14.59,3.77,14.59,13.6s-4.75,14.53-14.48,14.53Zm-15.46-21.69v15.24h13.99c5.03,0,7.59-2.08,7.59-8.03s-1.86-7.21-7.7-7.21h-13.88Z"/>
        <path class="cls-13" d="m785,150.32l-17.37-17.32h11.15c5.08,0,7.81-1.58,7.81-7.16,0-5.19-2.02-6.45-7.92-6.45h-13.17v30.92h-8.25v-37.7h22.95c10.38,0,14.75,3.55,14.75,12.51,0,8.09-4.1,12.56-13.33,12.51l14.04,12.68h-10.65Z"/>
        <path class="cls-13" d="m809.31,150.32h-8.3v-37.7h8.3v37.7Z"/>
        <path class="cls-13" d="m824.33,124.21v26.12h-8.25v-37.7h6.28l17.59,17.43,17.43-17.43h6.23v37.7h-8.3v-25.95l-15.46,14.92-15.52-15.08Z"/>
        <path class="cls-13" d="m904.04,150.32h-33.71v-37.7h33.65v6.56h-25.41v8.96h24.97v6.45h-24.97v9.18h25.46v6.56Z"/>
        <path class="cls-13" d="m937.85,150.32l-17.37-17.32h11.15c5.08,0,7.81-1.58,7.81-7.16,0-5.19-2.02-6.45-7.92-6.45h-13.17v30.92h-8.25v-37.7h22.95c10.38,0,14.75,3.55,14.75,12.51,0,8.09-4.1,12.56-13.33,12.51l14.04,12.68h-10.65Z"/>
        <path class="cls-13" d="m1002.27,150.32h-33.71v-37.7h33.65v6.56h-25.41v8.96h24.97v6.45h-24.97v9.18h25.46v6.56Z"/>
        <path class="cls-13" d="m1050.72,137.32c-1.2,10.38-7.32,13.82-21.14,13.82-15.02,0-21.91-4.37-21.91-19.61s7.49-19.72,21.91-19.72c13.39,0,19.67,3.28,20.87,13.44h-8.47c-.98-5.85-5.14-6.88-12.4-6.88-8.96,0-13.55,1.48-13.55,13.17s4.59,13.06,13.55,13.06c7.27,0,11.69-1.15,12.62-7.27h8.52Z"/>
        <path class="cls-13" d="m1055.63,131.53c0-15.84,7.7-19.72,22.56-19.72s22.57,3.88,22.57,19.72-6.94,19.61-22.57,19.61-22.56-4.37-22.56-19.61Zm36.82,0c0-11.53-4.64-13.06-14.26-13.06s-14.2,1.48-14.2,13.06,4.53,12.95,14.2,12.95,14.26-1.8,14.26-12.95Z"/>
        <path class="cls-13" d="m1105.35,138.14h8.63c.33,5.63,4.7,6.78,11.8,6.78,9.56,0,11.53-1.86,11.53-5.14s-2.73-3.93-6.5-4.53l-13.11-2.02c-7.59-1.2-11.09-4.81-11.09-10.33,0-6.06,4.42-11.09,19.28-11.09,12.78,0,19.12,3.06,19.61,12.73h-8.3c-.49-5.52-4.43-6.5-11.26-6.5-9.51,0-11.03,2.24-11.03,4.64s1.53,3.66,5.3,4.26l12.84,1.97c8.42,1.26,12.68,3.72,12.68,10.49,0,7.38-4.2,11.75-19.89,11.75-13.66,0-20.32-3.22-20.49-13Z"/>
        <path class="cls-13" d="m1159.98,150.32h-8.3v-37.7h8.3v37.7Z"/>
        <path class="cls-13" d="m1165.17,138.14h8.63c.33,5.63,4.7,6.78,11.8,6.78,9.56,0,11.53-1.86,11.53-5.14s-2.73-3.93-6.5-4.53l-13.11-2.02c-7.59-1.2-11.09-4.81-11.09-10.33,0-6.06,4.42-11.09,19.28-11.09,12.78,0,19.12,3.06,19.61,12.73h-8.3c-.49-5.52-4.43-6.5-11.26-6.5-9.51,0-11.03,2.24-11.03,4.64s1.53,3.66,5.3,4.26l12.84,1.97c8.42,1.26,12.68,3.72,12.68,10.49,0,7.38-4.2,11.75-19.89,11.75-13.66,0-20.32-3.22-20.49-13Z"/>
        <path class="cls-13" d="m1249.74,119.51h-16.44v30.81h-8.25v-30.81h-16.39v-6.88h41.09v6.88Z"/>
        <path class="cls-13" d="m1287.38,150.32h-33.71v-37.7h33.65v6.56h-25.41v8.96h24.97v6.45h-24.97v9.18h25.46v6.56Z"/>
        <path class="cls-13" d="m1301.69,124.21v26.12h-8.25v-37.7h6.28l17.59,17.43,17.43-17.43h6.23v37.7h-8.3v-25.95l-15.46,14.92-15.51-15.08Z"/>
        <path class="cls-13" d="m1363.58,112.63h7.16l19.12,37.7h-9.23l-3.06-6.5h-21.36l-3.11,6.5h-8.8l19.29-37.7Zm-4.53,25.3h15.79l-7.81-16.72-7.98,16.72Z"/>
      </g>
      <g>
        <path class="cls-13" d="m721.97,589.93h22.39v6.18h-29.76v-39.68h28.97v6.18h-21.6v27.33Zm-.57-17.01h19.73v6.07h-19.73v-6.07Z"/>
        <path class="cls-13" d="m752.58,596.11v-39.68h7.37v33.45h20.75v6.24h-28.12Z"/>
        <path class="cls-13" d="m793.91,589.93h22.39v6.18h-29.76v-39.68h28.97v6.18h-21.6v27.33Zm-.57-17.01h19.73v6.07h-19.73v-6.07Z"/>
        <path class="cls-13" d="m842.89,596.68c-3.02,0-5.83-.5-8.42-1.5-2.59-1-4.84-2.42-6.75-4.25s-3.39-4-4.45-6.49c-1.06-2.5-1.59-5.22-1.59-8.16s.53-5.67,1.59-8.16c1.06-2.5,2.55-4.66,4.48-6.49,1.93-1.83,4.18-3.25,6.75-4.25,2.57-1,5.38-1.5,8.45-1.5,3.25,0,6.22.56,8.9,1.67,2.68,1.12,4.95,2.77,6.8,4.96l-4.76,4.48c-1.44-1.55-3.04-2.71-4.82-3.49-1.78-.77-3.7-1.16-5.78-1.16s-3.98.34-5.7,1.02c-1.72.68-3.21,1.64-4.48,2.89-1.27,1.25-2.25,2.72-2.95,4.42-.7,1.7-1.05,3.57-1.05,5.61s.35,3.91,1.05,5.61c.7,1.7,1.68,3.17,2.95,4.42,1.26,1.25,2.76,2.21,4.48,2.89,1.72.68,3.62,1.02,5.7,1.02s4.01-.39,5.78-1.16c1.78-.77,3.38-1.96,4.82-3.54l4.76,4.53c-1.85,2.15-4.12,3.8-6.8,4.93-2.68,1.13-5.67,1.7-8.96,1.7Z"/>
        <path class="cls-13" d="m873.33,596.11v-33.45h-13.15v-6.24h33.68v6.24h-13.15v33.45h-7.37Z"/>
        <path class="cls-13" d="m899.41,596.11v-39.68h16.33c3.52,0,6.53.57,9.04,1.7,2.51,1.13,4.45,2.76,5.81,4.88,1.36,2.12,2.04,4.63,2.04,7.54s-.68,5.41-2.04,7.51c-1.36,2.1-3.3,3.7-5.81,4.82-2.51,1.12-5.53,1.67-9.04,1.67h-12.24l3.29-3.34v14.91h-7.37Zm7.37-14.12l-3.29-3.52h11.91c3.25,0,5.7-.7,7.34-2.1,1.64-1.4,2.47-3.35,2.47-5.84s-.82-4.48-2.47-5.84c-1.64-1.36-4.09-2.04-7.34-2.04h-11.91l3.29-3.63v22.96Zm18.59,14.12l-10.04-14.4h7.88l10.09,14.4h-7.94Z"/>
        <path class="cls-13" d="m959.44,596.68c-3.1,0-5.95-.51-8.56-1.53-2.61-1.02-4.88-2.45-6.8-4.28-1.93-1.83-3.42-3.99-4.48-6.46-1.06-2.48-1.59-5.19-1.59-8.14s.53-5.66,1.59-8.14c1.06-2.47,2.55-4.63,4.48-6.46,1.93-1.83,4.19-3.26,6.8-4.28,2.61-1.02,5.44-1.53,8.5-1.53s5.94.51,8.53,1.53c2.59,1.02,4.85,2.45,6.78,4.28,1.93,1.83,3.42,3.99,4.48,6.46,1.06,2.48,1.59,5.19,1.59,8.14s-.53,5.67-1.59,8.16c-1.06,2.49-2.55,4.65-4.48,6.46-1.93,1.81-4.19,3.23-6.78,4.25-2.59,1.02-5.41,1.53-8.48,1.53Zm-.06-6.46c2,0,3.86-.34,5.56-1.02,1.7-.68,3.17-1.65,4.42-2.92,1.25-1.26,2.22-2.74,2.92-4.42s1.05-3.54,1.05-5.59-.35-3.9-1.05-5.58-1.67-3.15-2.92-4.42c-1.25-1.26-2.72-2.24-4.42-2.92-1.7-.68-3.55-1.02-5.56-1.02s-3.85.34-5.53,1.02c-1.68.68-3.16,1.65-4.42,2.92-1.27,1.27-2.25,2.74-2.95,4.42-.7,1.68-1.05,3.54-1.05,5.58s.35,3.86,1.05,5.56c.7,1.7,1.67,3.19,2.92,4.45,1.25,1.27,2.72,2.24,4.42,2.92,1.7.68,3.55,1.02,5.55,1.02Zm-4.76-37.02l7.65-7.77h8.33l-9.86,7.77h-6.12Z"/>
        <path class="cls-13" d="m988.58,596.11v-39.68h6.07l24.89,30.56h-3v-30.56h7.31v39.68h-6.07l-24.89-30.56h3v30.56h-7.31Z"/>
        <path class="cls-13" d="m1034.5,596.11v-39.68h7.37v39.68h-7.37Z"/>
        <path class="cls-13" d="m1070.96,596.68c-3.02,0-5.83-.5-8.42-1.5-2.59-1-4.83-2.42-6.74-4.25s-3.39-4-4.45-6.49c-1.06-2.5-1.59-5.22-1.59-8.16s.53-5.67,1.59-8.16c1.06-2.5,2.55-4.66,4.48-6.49,1.93-1.83,4.17-3.25,6.75-4.25,2.57-1,5.39-1.5,8.44-1.5,3.25,0,6.22.56,8.9,1.67s4.95,2.77,6.8,4.96l-4.76,4.48c-1.44-1.55-3.04-2.71-4.82-3.49s-3.7-1.16-5.78-1.16-3.98.34-5.7,1.02c-1.72.68-3.21,1.64-4.47,2.89-1.27,1.25-2.25,2.72-2.95,4.42-.7,1.7-1.05,3.57-1.05,5.61s.35,3.91,1.05,5.61c.7,1.7,1.68,3.17,2.95,4.42,1.27,1.25,2.76,2.21,4.47,2.89,1.72.68,3.62,1.02,5.7,1.02s4-.39,5.78-1.16,3.38-1.96,4.82-3.54l4.76,4.53c-1.85,2.15-4.12,3.8-6.8,4.93s-5.67,1.7-8.95,1.7Z"/>
        <path class="cls-13" d="m1087.34,596.11l17.86-39.68h7.26l17.92,39.68h-7.71l-15.36-35.77h2.95l-15.31,35.77h-7.6Zm8.22-9.18l1.98-5.78h21.43l1.98,5.78h-25.4Z"/>
        <path class="cls-13" d="m1169.43,596.68c-3.02,0-5.83-.5-8.42-1.5-2.59-1-4.84-2.42-6.74-4.25-1.91-1.83-3.39-4-4.45-6.49-1.06-2.5-1.59-5.22-1.59-8.16s.53-5.67,1.59-8.16c1.06-2.5,2.55-4.66,4.48-6.49,1.93-1.83,4.18-3.25,6.75-4.25,2.57-1,5.39-1.5,8.45-1.5,3.25,0,6.22.56,8.9,1.67s4.95,2.77,6.8,4.96l-4.76,4.48c-1.44-1.55-3.04-2.71-4.82-3.49s-3.7-1.16-5.78-1.16-3.98.34-5.7,1.02c-1.72.68-3.21,1.64-4.48,2.89-1.27,1.25-2.25,2.72-2.95,4.42-.7,1.7-1.05,3.57-1.05,5.61s.35,3.91,1.05,5.61c.7,1.7,1.68,3.17,2.95,4.42,1.27,1.25,2.76,2.21,4.48,2.89,1.72.68,3.62,1.02,5.7,1.02s4-.39,5.78-1.16,3.38-1.96,4.82-3.54l4.76,4.53c-1.85,2.15-4.12,3.8-6.8,4.93s-5.67,1.7-8.96,1.7Z"/>
        <path class="cls-13" d="m1210.02,596.68c-3.1,0-5.95-.51-8.56-1.53-2.61-1.02-4.88-2.45-6.8-4.28s-3.42-3.99-4.48-6.46-1.59-5.19-1.59-8.14.53-5.66,1.59-8.14c1.06-2.47,2.55-4.63,4.48-6.46s4.19-3.26,6.8-4.28c2.61-1.02,5.44-1.53,8.5-1.53s5.94.51,8.53,1.53c2.59,1.02,4.85,2.45,6.78,4.28s3.42,3.99,4.48,6.46c1.06,2.48,1.59,5.19,1.59,8.14s-.53,5.67-1.59,8.16c-1.06,2.49-2.55,4.65-4.48,6.46-1.93,1.81-4.19,3.23-6.78,4.25-2.59,1.02-5.41,1.53-8.47,1.53Zm-.06-6.46c2,0,3.85-.34,5.56-1.02,1.7-.68,3.17-1.65,4.42-2.92,1.25-1.26,2.22-2.74,2.92-4.42s1.05-3.54,1.05-5.59-.35-3.9-1.05-5.58-1.67-3.15-2.92-4.42c-1.25-1.26-2.72-2.24-4.42-2.92-1.7-.68-3.55-1.02-5.56-1.02s-3.85.34-5.53,1.02c-1.68.68-3.16,1.65-4.42,2.92-1.27,1.27-2.25,2.74-2.95,4.42-.7,1.68-1.05,3.54-1.05,5.58s.35,3.86,1.05,5.56c.7,1.7,1.67,3.19,2.92,4.45,1.25,1.27,2.72,2.24,4.42,2.92,1.7.68,3.55,1.02,5.56,1.02Z"/>
        <path class="cls-13" d="m1239.15,596.11v-39.68h6.07l24.89,30.56h-3.01v-30.56h7.31v39.68h-6.07l-24.88-30.56h3v30.56h-7.31Z"/>
        <path class="cls-13" d="m1300.72,596.11v-39.68h7.37v39.68h-7.37Z"/>
        <path class="cls-13" d="m1318.8,596.11v-39.68h6.07l24.89,30.56h-3.01v-30.56h7.31v39.68h-6.07l-24.88-30.56h3v30.56h-7.31Z"/>
        <path class="cls-13" d="m1372.77,596.11v-33.45h-13.15v-6.24h33.67v6.24h-13.15v33.45h-7.37Z"/>
        <path class="cls-13" d="m1406.22,589.93h22.39v6.18h-29.76v-39.68h28.97v6.18h-21.6v27.33Zm-.57-17.01h19.73v6.07h-19.73v-6.07Z"/>
        <path class="cls-13" d="m1436.83,596.11v-39.68h7.37v33.45h20.75v6.24h-28.12Z"/>
        <path class="cls-13" d="m1470.79,596.11v-39.68h7.37v39.68h-7.37Z"/>
        <path class="cls-13" d="m1507.41,596.68c-3.1,0-5.94-.5-8.53-1.5s-4.85-2.42-6.78-4.25-3.42-4-4.48-6.49c-1.06-2.5-1.59-5.22-1.59-8.16s.53-5.67,1.59-8.16c1.06-2.5,2.56-4.66,4.51-6.49,1.94-1.83,4.22-3.25,6.83-4.25,2.61-1,5.46-1.5,8.56-1.5,3.36,0,6.4.55,9.1,1.64,2.7,1.1,4.98,2.7,6.83,4.82l-4.65,4.53c-1.55-1.55-3.22-2.69-5.02-3.43s-3.77-1.1-5.92-1.1-4,.34-5.78,1.02c-1.78.68-3.31,1.64-4.59,2.89-1.28,1.25-2.28,2.72-2.98,4.42-.7,1.7-1.05,3.57-1.05,5.61s.35,3.86,1.05,5.56c.7,1.7,1.69,3.19,2.98,4.45,1.28,1.27,2.8,2.24,4.53,2.92,1.74.68,3.67,1.02,5.78,1.02,1.96,0,3.86-.31,5.7-.94s3.58-1.67,5.24-3.15l4.19,5.5c-2.08,1.66-4.49,2.92-7.23,3.77-2.74.85-5.51,1.28-8.3,1.28Zm8.56-6.01v-14.85h6.97v15.82l-6.97-.96Z"/>
        <path class="cls-13" d="m1540.01,589.93h22.39v6.18h-29.76v-39.68h28.97v6.18h-21.6v27.33Zm-.57-17.01h19.73v6.07h-19.73v-6.07Z"/>
        <path class="cls-13" d="m1570.62,596.11v-39.68h6.07l24.89,30.56h-3.01v-30.56h7.31v39.68h-6.07l-24.88-30.56h3v30.56h-7.31Z"/>
        <path class="cls-13" d="m1634.91,596.68c-3.02,0-5.83-.5-8.42-1.5-2.59-1-4.84-2.42-6.74-4.25-1.91-1.83-3.39-4-4.45-6.49-1.06-2.5-1.59-5.22-1.59-8.16s.53-5.67,1.59-8.16c1.06-2.5,2.55-4.66,4.48-6.49s4.18-3.25,6.75-4.25c2.57-1,5.39-1.5,8.45-1.5,3.25,0,6.22.56,8.9,1.67s4.95,2.77,6.8,4.96l-4.76,4.48c-1.44-1.55-3.04-2.71-4.82-3.49s-3.7-1.16-5.78-1.16-3.98.34-5.7,1.02c-1.72.68-3.21,1.64-4.48,2.89-1.27,1.25-2.25,2.72-2.95,4.42-.7,1.7-1.05,3.57-1.05,5.61s.35,3.91,1.05,5.61c.7,1.7,1.68,3.17,2.95,4.42,1.27,1.25,2.76,2.21,4.48,2.89,1.72.68,3.62,1.02,5.7,1.02s4-.39,5.78-1.16,3.38-1.96,4.82-3.54l4.76,4.53c-1.85,2.15-4.12,3.8-6.8,4.93s-5.67,1.7-8.96,1.7Z"/>
        <path class="cls-13" d="m1657.75,596.11v-39.68h7.37v39.68h-7.37Z"/>
        <path class="cls-13" d="m1670.22,596.11l17.86-39.68h7.26l17.92,39.68h-7.71l-15.36-35.77h2.95l-15.31,35.77h-7.6Zm8.22-9.18l1.98-5.78h21.43l1.98,5.78h-25.4Z"/>
        <path class="cls-13" d="m1728.33,596.11l17.86-39.68h7.26l17.92,39.68h-7.71l-15.36-35.77h2.95l-15.31,35.77h-7.6Zm8.22-9.18l1.98-5.78h21.43l1.98,5.78h-25.4Z"/>
        <path class="cls-13" d="m1776.41,596.11v-39.68h16.33c3.51,0,6.53.57,9.04,1.7,2.51,1.13,4.45,2.76,5.81,4.88,1.36,2.12,2.04,4.63,2.04,7.54s-.68,5.41-2.04,7.51c-1.36,2.1-3.3,3.7-5.81,4.82-2.52,1.12-5.53,1.67-9.04,1.67h-12.25l3.29-3.34v14.91h-7.37Zm7.37-14.12l-3.29-3.52h11.91c3.25,0,5.7-.7,7.34-2.1,1.64-1.4,2.46-3.35,2.46-5.84s-.82-4.48-2.46-5.84c-1.64-1.36-4.09-2.04-7.34-2.04h-11.91l3.29-3.63v22.96Zm18.59,14.12l-10.03-14.4h7.88l10.09,14.4h-7.94Z"/>
        <path class="cls-13" d="m1825.33,596.11v-33.45h-13.15v-6.24h33.67v6.24h-13.15v33.45h-7.37Z"/>
        <path class="cls-13" d="m1851.41,596.11v-39.68h7.37v39.68h-7.37Z"/>
        <path class="cls-13" d="m1876.86,596.11h-7.37v-39.68h28.97v6.18h-21.6v33.51Zm-.62-21.43h19.78v6.24h-19.78v-6.24Z"/>
        <path class="cls-13" d="m1905.6,596.11v-39.68h7.37v39.68h-7.37Z"/>
        <path class="cls-13" d="m1942.05,596.68c-3.02,0-5.83-.5-8.42-1.5-2.59-1-4.84-2.42-6.74-4.25-1.91-1.83-3.39-4-4.45-6.49-1.06-2.5-1.59-5.22-1.59-8.16s.53-5.67,1.59-8.16c1.06-2.5,2.55-4.66,4.48-6.49s4.18-3.25,6.75-4.25c2.57-1,5.39-1.5,8.45-1.5,3.25,0,6.22.56,8.9,1.67s4.95,2.77,6.8,4.96l-4.76,4.48c-1.44-1.55-3.04-2.71-4.82-3.49s-3.7-1.16-5.78-1.16-3.98.34-5.7,1.02c-1.72.68-3.21,1.64-4.48,2.89-1.27,1.25-2.25,2.72-2.95,4.42-.7,1.7-1.05,3.57-1.05,5.61s.35,3.91,1.05,5.61c.7,1.7,1.68,3.17,2.95,4.42,1.27,1.25,2.76,2.21,4.48,2.89,1.72.68,3.62,1.02,5.7,1.02s4-.39,5.78-1.16,3.38-1.96,4.82-3.54l4.76,4.53c-1.85,2.15-4.12,3.8-6.8,4.93s-5.67,1.7-8.96,1.7Z"/>
        <path class="cls-13" d="m1964.9,596.11v-39.68h7.37v39.68h-7.37Z"/>
        <path class="cls-13" d="m1977.37,596.11l17.86-39.68h7.26l17.92,39.68h-7.71l-15.36-35.77h2.95l-15.31,35.77h-7.6Zm8.22-9.18l1.98-5.78h21.43l1.98,5.78h-25.4Z"/>
        <path class="cls-13" d="m2025.44,596.11v-39.68h7.37v33.45h20.75v6.24h-28.12Z"/>
      </g>
      <g>
        <g>
          <path class="cls-17" d="m745.89,333.69h-32.23v-146.31h32.23v146.31Z"/>
          <path class="cls-4" d="m794.65,187.38l104.54,100.93v-100.93h30.54v146.31h-22.9l-104.11-100.3v100.3h-30.54v-146.31h22.48Z"/>
          <path class="cls-15" d="m1104.43,214.1h-63.83v119.59h-32.02v-119.59h-63.61v-26.72h159.46v26.72Z"/>
          <path class="cls-9" d="m1250.52,333.69h-130.83v-146.31h130.62v25.45h-98.6v34.78h96.9v25.02h-96.9v35.62h98.81v25.45Z"/>
          <path class="cls-1" d="m1381.76,333.69l-67.43-67.22h43.26c19.72,0,30.32-6.15,30.32-27.78,0-20.15-7.84-25.02-30.75-25.02h-51.1v120.02h-32.02v-146.31h89.06c40.29,0,57.25,13.78,57.25,48.56,0,31.38-15.9,48.77-51.74,48.56l54.5,49.2h-41.35Z"/>
        </g>
        <g>
          <path class="cls-11" d="m713.66,471.23h33.5c1.27,21.84,18.24,26.3,45.8,26.3,37.11,0,44.74-7.21,44.74-19.93s-10.6-15.27-25.23-17.6l-50.89-7.85c-29.47-4.66-43.04-18.66-43.04-40.08,0-23.54,17.18-43.05,74.85-43.05,49.62,0,74.21,11.87,76.12,49.41h-32.23c-1.91-21.42-17.18-25.23-43.68-25.23-36.9,0-42.83,8.69-42.83,18.02s5.94,14.21,20.57,16.54l49.83,7.63c32.65,4.88,49.19,14.42,49.19,40.71,0,28.63-16.33,45.59-77.18,45.59-53.01,0-78.88-12.51-79.52-50.47Z"/>
          <path class="cls-5" d="m1024.29,518.52h-130.83v-146.31h130.62v25.45h-98.6v34.78h96.9v25.02h-96.9v35.62h98.81v25.45Z"/>
          <path class="cls-12" d="m1125.42,439.64h88.63v23.54c0,42.83-31.59,58.52-83.75,58.52-57.04,0-85.03-16.96-85.03-76.12s30.32-76.55,85.03-76.55c50.89,0,77.82,12.72,82.27,51.1h-32.65c-3.61-21.63-19.3-25.66-49.62-25.66-35.2,0-52.59,5.73-52.59,51.1s17.39,50.68,53.01,50.68c29.9,0,52.37-6.15,52.37-32.23v-.85h-57.67v-23.54Z"/>
          <path class="cls-21" d="m1236.1,372.2h32.23v86.52c0,29.05,14.63,36.68,43.89,36.68s44.11-7.63,44.11-36.68v-86.52h32.02v89.06c0,41.13-23.33,60.43-76.13,60.43s-76.13-19.08-76.13-60.43v-89.06Z"/>
          <path class="cls-8" d="m1520.65,518.52l-67.43-67.22h43.26c19.72,0,30.32-6.15,30.32-27.78,0-20.15-7.84-25.02-30.75-25.02h-51.1v120.02h-32.02v-146.31h89.06c40.28,0,57.25,13.78,57.25,48.56,0,31.38-15.9,48.77-51.74,48.56l54.5,49.2h-41.35Z"/>
          <path class="cls-18" d="m1615,518.52h-32.23v-146.31h32.23v146.31Z"/>
          <path class="cls-3" d="m1641.28,372.2h74.22c52.16,0,81.63,11.87,81.63,73.37,0,57.04-26.93,72.94-81.63,72.94h-74.22v-146.31Zm123.41,73.37c0-45.17-18.23-48.35-52.8-48.35h-38.59v96.27h38.59c34.78,0,52.8-6.15,52.8-47.92Z"/>
          <path class="cls-14" d="m1877.06,372.2h27.78l74.22,146.31h-35.84l-11.87-25.23h-82.91l-12.08,25.23h-34.14l74.85-146.31Zm-17.6,98.18h61.28l-30.32-64.89-30.96,64.89Z"/>
          <path class="cls-20" d="m1992.19,372.2h74.22c52.16,0,81.63,11.87,81.63,73.37,0,57.04-26.93,72.94-81.63,72.94h-74.22v-146.31Zm123.41,73.37c0-45.17-18.23-48.35-52.8-48.35h-38.59v96.27h38.59c34.78,0,52.8-6.15,52.8-47.92Z"/>
        </g>
      </g>
    </g>
  </g>
</svg>